REM DIRINDEX 1\2\6,1\2\7,1\2\8,1\2\9,1\3\10,1\3\11,1\4\12,1\4\13,1\4\14,1\5\15,1\5\16,1\5\17
REM DIRNAME folder01,folder02,folder03,folder04,folder05,folder06,folder07,folder08,folder09,folder10,folder11,folder12,folder13,folder14,folder15,folder16,folder17
TITLE ""
FILE "1400_3_sec10_0985_1000.mp3" MP3
  TRACK 01 AUDIO
    TITLE "0:"
    INDEX 01 00:00:00
  TRACK 02 AUDIO
    TITLE "17:cjc029_6406"
    INDEX 01 00:00:15
  TRACK 03 AUDIO
    TITLE "0:"
    INDEX 01 00:01:38
  TRACK 04 AUDIO
    TITLE "16:cjc029_6407"
    INDEX 01 00:01:46
  TRACK 05 AUDIO
    TITLE "0:"
    INDEX 01 00:02:57
  TRACK 06 AUDIO
    TITLE "17:cjc029_6408"
    INDEX 01 00:03:41
  TRACK 07 AUDIO
    TITLE "0:"
    INDEX 01 00:04:56
  TRACK 08 AUDIO
    TITLE "16:cjc029_6409"
    INDEX 01 00:04:62
  TRACK 09 AUDIO
    TITLE "0:"
    INDEX 01 00:06:02
  TRACK 10 AUDIO
    TITLE "17:cjc029_6410"
    INDEX 01 00:06:63
  TRACK 11 AUDIO
    TITLE "0:"
    INDEX 01 00:08:05
  TRACK 12 AUDIO
    TITLE "16:cjc029_6411"
    INDEX 01 00:08:09
  TRACK 13 AUDIO
    TITLE "0:"
    INDEX 01 00:09:14
  TRACK 14 AUDIO
    TITLE "17:cjc029_6412"
    INDEX 01 00:10:00
  TRACK 15 AUDIO
    TITLE "0:"
    INDEX 01 00:11:39
  TRACK 16 AUDIO
    TITLE "16:cjc029_6413"
    INDEX 01 00:11:44
  TRACK 17 AUDIO
    TITLE "0:"
    INDEX 01 00:12:56
  TRACK 18 AUDIO
    TITLE "17:cjc029_6414"
    INDEX 01 00:13:41
  TRACK 19 AUDIO
    TITLE "0:"
    INDEX 01 00:16:32
  TRACK 20 AUDIO
    TITLE "16:cjc029_6415"
    INDEX 01 00:16:36
  TRACK 21 AUDIO
    TITLE "0:"
    INDEX 01 00:17:53
  TRACK 22 AUDIO
    TITLE "17:cjc029_6416"
    INDEX 01 00:18:37
  TRACK 23 AUDIO
    TITLE "0:"
    INDEX 01 00:19:58
  TRACK 24 AUDIO
    TITLE "16:cjc029_6417"
    INDEX 01 00:20:02
  TRACK 25 AUDIO
    TITLE "0:"
    INDEX 01 00:21:15
  TRACK 26 AUDIO
    TITLE "17:cjc029_6418"
    INDEX 01 00:21:74
  TRACK 27 AUDIO
    TITLE "0:"
    INDEX 01 00:23:20
  TRACK 28 AUDIO
    TITLE "16:cjc029_6419"
    INDEX 01 00:23:24
  TRACK 29 AUDIO
    TITLE "0:"
    INDEX 01 00:24:37
  TRACK 30 AUDIO
    TITLE "17:cjc029_6420"
    INDEX 01 00:25:21
  TRACK 31 AUDIO
    TITLE "0:"
    INDEX 01 00:28:29
  TRACK 32 AUDIO
    TITLE "16:cjc029_6421"
    INDEX 01 00:28:39
  TRACK 33 AUDIO
    TITLE "0:"
    INDEX 01 00:29:62
  TRACK 34 AUDIO
    TITLE "17:cjc029_6422"
    INDEX 01 00:30:46
  TRACK 35 AUDIO
    TITLE "0:"
    INDEX 01 00:32:09
  TRACK 36 AUDIO
    TITLE "16:cjc029_6423"
    INDEX 01 00:32:13
  TRACK 37 AUDIO
    TITLE "0:"
    INDEX 01 00:33:40
  TRACK 38 AUDIO
    TITLE "17:cjc029_6424"
    INDEX 01 00:34:26
  TRACK 39 AUDIO
    TITLE "0:"
    INDEX 01 00:36:58
  TRACK 40 AUDIO
    TITLE "16:cjc029_6425"
    INDEX 01 00:36:66
  TRACK 41 AUDIO
    TITLE "0:"
    INDEX 01 00:38:02
  TRACK 42 AUDIO
    TITLE "17:cjc029_6426"
    INDEX 01 00:38:65
  TRACK 43 AUDIO
    TITLE "0:"
    INDEX 01 00:40:23
  TRACK 44 AUDIO
    TITLE "16:cjc029_6427"
    INDEX 01 00:40:28
  TRACK 45 AUDIO
    TITLE "0:"
    INDEX 01 00:41:55
  TRACK 46 AUDIO
    TITLE "17:cjc029_6428"
    INDEX 01 00:42:41
  TRACK 47 AUDIO
    TITLE "0:"
    INDEX 01 00:43:54
  TRACK 48 AUDIO
    TITLE "16:cjc029_6429"
    INDEX 01 00:43:58
  TRACK 49 AUDIO
    TITLE "0:"
    INDEX 01 00:45:00
  TRACK 50 AUDIO
    TITLE "17:cjc029_6430"
    INDEX 01 00:45:59
  TRACK 51 AUDIO
    TITLE "0:"
    INDEX 01 00:47:11
  TRACK 52 AUDIO
    TITLE "16:cjc029_6431"
    INDEX 01 00:47:17
  TRACK 53 AUDIO
    TITLE "0:"
    INDEX 01 00:48:22
  TRACK 54 AUDIO
    TITLE "17:cjc029_6432"
    INDEX 01 00:49:10
  TRACK 55 AUDIO
    TITLE "0:"
    INDEX 01 00:50:56
  TRACK 56 AUDIO
    TITLE "16:cjc029_6433"
    INDEX 01 00:50:62
  TRACK 57 AUDIO
    TITLE "0:"
    INDEX 01 00:52:22
  TRACK 58 AUDIO
    TITLE "17:cjc029_6434"
    INDEX 01 00:53:08
  TRACK 59 AUDIO
    TITLE "0:"
    INDEX 01 00:54:38
  TRACK 60 AUDIO
    TITLE "16:cjc029_6435"
    INDEX 01 00:54:46
  TRACK 61 AUDIO
    TITLE "0:"
    INDEX 01 00:55:59
  TRACK 62 AUDIO
    TITLE "17:cjc029_6436"
    INDEX 01 00:56:43
  TRACK 63 AUDIO
    TITLE "0:"
    INDEX 01 00:59:06
  TRACK 64 AUDIO
    TITLE "16:cjc029_6437"
    INDEX 01 00:59:10
  TRACK 65 AUDIO
    TITLE "0:"
    INDEX 01 01:00:13
